<?xml version="1.0" encoding="UTF-8" standalone="no"?>
<svg
   xmlns:dc="http://purl.org/dc/elements/1.1/"
   xmlns:cc="http://creativecommons.org/ns#"
   xmlns:rdf="http://www.w3.org/1999/02/22-rdf-syntax-ns#"
   xmlns:svg="http://www.w3.org/2000/svg"
   xmlns="http://www.w3.org/2000/svg"
   xmlns:sodipodi="http://sodipodi.sourceforge.net/DTD/sodipodi-0.dtd"
   xmlns:inkscape="http://www.inkscape.org/namespaces/inkscape"
   width="7in"
   height="7in"
   viewBox="0 0 672.00001 672.00003"
   version="1.1"
   xml:space="preserve"
   style="clip-rule:evenodd;fill-rule:evenodd;stroke-linecap:round;stroke-linejoin:round;stroke-miterlimit:1.5"
   id="svg947"
   sodipodi:docname="logo.svg"
   inkscape:version="0.92.4 (5da689c313, 2019-01-14)"><metadata
     id="metadata953"><rdf:RDF><cc:Work
         rdf:about=""><dc:format>image/svg+xml</dc:format><dc:type
           rdf:resource="http://purl.org/dc/dcmitype/StillImage" /><dc:title></dc:title></cc:Work></rdf:RDF></metadata><defs
     id="defs951">
        
        
        
        
        
        
        
        
    </defs><sodipodi:namedview
     pagecolor="#ffffff"
     bordercolor="#666666"
     borderopacity="1"
     objecttolerance="10"
     gridtolerance="10"
     guidetolerance="10"
     inkscape:pageopacity="0"
     inkscape:pageshadow="2"
     inkscape:window-width="2560"
     inkscape:window-height="1376"
     id="namedview949"
     showgrid="false"
     inkscape:zoom="1.7150268"
     inkscape:cx="314.13685"
     inkscape:cy="339.99255"
     inkscape:window-x="0"
     inkscape:window-y="27"
     inkscape:window-maximized="1"
     inkscape:current-layer="svg947"
     units="in" /><g
     inkscape:groupmode="layer"
     id="layer1"
     inkscape:label="Belt"
     style="display:inline"
     transform="translate(0,547.00007)"><path
       style="fill:#fbffff;fill-opacity:1;stroke:#000000;stroke-width:16.13665581;stroke-linecap:butt;stroke-linejoin:miter;stroke-miterlimit:1.5;stroke-dasharray:none;stroke-opacity:1"
       d="M 94.165476,-494.63649 V 72.530402 H 563.14604 V -380.80923 l -114.42505,-116.8136 z"
       id="path5417"
       inkscape:connector-curvature="0"
       sodipodi:nodetypes="cccccc" /><path
       style="fill:none;fill-opacity:1;stroke:#000000;stroke-width:15.94995594;stroke-linecap:butt;stroke-linejoin:miter;stroke-miterlimit:1.5;stroke-dasharray:none;stroke-opacity:1"
       d="m 448.72099,-497.62283 4.20849,114.48128 110.21656,2.33232"
       id="path5419"
       inkscape:connector-curvature="0"
       sodipodi:nodetypes="ccc" /></g><g
     inkscape:groupmode="layer"
     id="layer2"
     inkscape:label="Fg" /><g
     id="g1605"><circle
       style="fill:#90d2ed;stroke:none;stroke-width:0.57700568"
       r="27.696272%"
       id="circle2"
       cy="346.64066"
       cx="324.19321" /><g
       id="g8"
       style="fill:#000000"
       transform="matrix(0.48376198,0,0,0.48376198,174.26068,148.23181)"><svg
         style="fill:#000000"
         height="100%"
         width="100%"
         id="svg6"
         xml:space="preserve"
         enable-background="new 0 0 100 100"
         viewBox="0 0 100 100"
         y="0px"
         x="0px"
         version="1.1"><path
           style="fill:#000000"
           inkscape:connector-curvature="0"
           id="path4"
           d="M 97.8,63.2 C 96.1,60.1 92.7,56.6 86,57.4 L 70.6,59.3 V 44.5 42.3 c 0,-3.1 -2.5,-5.6 -5.6,-5.6 h -4.9 c -1.5,0 -2.9,0.5 -3.9,1.4 -0.8,-2.3 -3,-4 -5.6,-4 h -4 C 44,34.1 41.9,35.7 41,38 40,37.2 38.7,36.6 37.3,36.6 H 33 c -3.2,0 -5.9,2.6 -5.9,5.9 V 45 l -6,-15.5 c -1,-3.7 -4.9,-6 -8.7,-4.9 -1.8,0.5 -3.4,1.7 -4.3,3.3 -0.9,1.6 -1.2,3.6 -0.7,5.4 l 7,25.3 c 0.3,2.8 4.2,39.3 27.3,39.2 0,0 0,0 0.1,0 24.7,0 29.5,-13.3 30.4,-16.8 l 22.9,-7.5 c 1.3,-0.3 2.4,-1.2 3,-2.6 1,-2.3 0.9,-5.7 -0.3,-7.7 z M 60.1,39.1 H 65 c 1.7,0 3.1,1.4 3.1,3.1 v 2.2 17.6 0.7 c 0,2.1 -1.7,3.8 -3.8,3.8 h -4 c -2.1,0 -3.8,-1.7 -3.8,-3.8 v -20 c 0,-2 1.6,-3.6 3.6,-3.6 z m -17,1 c 0,-1.9 1.6,-3.5 3.5,-3.5 h 4 c 1.9,0 3.5,1.6 3.5,3.5 v 2.6 20 1.1 c 0,1.5 -1.2,2.7 -2.7,2.7 h -5.1 c -1.7,0 -3.1,-1.4 -3.1,-3.1 V 61.7 42.5 40.1 Z m -13.5,2.4 c 0,-1.8 1.5,-3.4 3.4,-3.4 h 4.2 c 1.8,0 3.4,1.5 3.4,3.4 v 19.2 c 0,1.3 -1,2.3 -2.3,2.3 h -5.7 c -1.6,0 -3,-1.3 -3,-3 z M 95.8,69.9 C 95.5,70.6 95,71 94.5,71.1 l -24.5,8 -0.1,0.8 c 0,0.2 -2.1,15.4 -28,15.5 0,0 0,0 -0.1,0 C 20.6,95.4 17,58.7 17,58.3 L 9.9,32.7 c -0.3,-1.2 -0.2,-2.4 0.5,-3.5 0.6,-1.1 1.6,-1.8 2.8,-2.1 2.5,-0.7 5,0.8 5.6,3.2 l 7.8,20.1 c 0.1,0.3 0.3,0.5 0.6,0.6 v 10 c 0,3 2.4,5.5 5.5,5.5 h 5.7 c 1,0 2,-0.3 2.7,-0.9 0.9,2 2.8,3.4 5.1,3.4 h 5.1 c 1.8,0 3.3,-0.9 4.2,-2.2 1.2,1.3 2.9,2.2 4.8,2.2 h 4 c 3.5,0 6.3,-2.8 6.3,-6.3 v -1 l 15.7,-1.9 c 4.3,-0.5 7.4,1.1 9.4,4.6 0.7,1.4 0.8,3.9 0.1,5.5 z" /></svg></g><g
       transform="matrix(4.1640883,0,0,4.1640883,-765.57555,-63.478342)"
       id="g1594"><path
         style="fill:#ffffff;stroke-width:0.42372882"
         d="m 255.99647,124.55253 c -2.89543,-0.57769 -4.83477,-1.69308 -7.32144,-4.21085 -4.04896,-4.0996 -7.19747,-11.42778 -8.84256,-20.581155 -0.46302,-2.576248 -1.99864,-8.828277 -3.41249,-13.893396 -1.41385,-5.065119 -2.57064,-9.855517 -2.57064,-10.645327 0,-1.638364 1.56335,-3.192443 3.21148,-3.192443 1.90473,0 2.97597,1.690835 5.90602,9.322034 1.56592,4.07839 3.1106,7.968914 3.43261,8.645609 0.37961,0.797723 0.58549,2.751832 0.58549,5.557263 0,4.989595 0.5786,6.209905 3.30317,6.966605 1.72878,0.48014 4.81737,0.51461 6.40076,0.0714 0.77755,-0.21763 1.29447,-0.008 2.19199,0.8897 1.09605,1.09605 1.41089,1.17448 4.71449,1.17448 2.50061,0 3.81334,-0.19145 4.47095,-0.65205 0.83795,-0.58693 1.05689,-0.58693 2.19188,0 1.65723,0.85698 6.44667,0.86248 8.09656,0.009 1.32851,-0.687 2.5285,-2.58019 2.5285,-3.98914 0,-1.031071 0.10622,-1.058157 7.76602,-1.980411 6.8617,-0.826161 8.36833,-0.571646 10.41502,1.75941 1.03453,1.178261 1.31049,1.880051 1.31049,3.332711 0,1.12794 -0.2488,2.04663 -0.64281,2.37363 -0.35355,0.29342 -4.85935,1.89956 -10.0129,3.56921 l -9.37009,3.03572 -0.85586,2.29433 c -1.65431,4.43475 -6.60241,8.13811 -12.67266,9.48472 -3.57206,0.79243 -8.61531,1.09931 -10.82398,0.65863 z"
         id="path68"
         inkscape:connector-curvature="0" /><path
         style="fill:#ffffff;stroke-width:0.42372882"
         d="m 270.95515,101.54656 -1.08886,-1.08885 v -8.513097 c 0,-8.473625 0.005,-8.517919 1.04006,-9.553159 0.86739,-0.867387 1.45191,-1.040061 3.52071,-1.040061 4.232,0 4.12567,-0.266272 4.12567,10.332065 0,10.670372 0.0719,10.475962 -3.98306,10.769272 -2.27385,0.16447 -2.63423,0.0741 -3.61452,-0.90617 z"
         id="path70"
         inkscape:connector-curvature="0" /><path
         style="fill:#ffffff;stroke-width:0.42372882"
         d="m 260.63854,101.87821 c -0.92829,-0.6502 -0.94174,-0.80359 -0.94174,-10.739409 0,-11.821478 -0.1223,-11.482324 4.14069,-11.482324 3.94912,0 3.91016,-0.116823 3.91016,11.722798 0,9.687325 -0.0146,9.849505 -0.94174,10.498935 -0.55083,0.38582 -1.83085,0.65962 -3.08369,0.65962 -1.25283,0 -2.53285,-0.2738 -3.08368,-0.65962 z"
         id="path72"
         inkscape:connector-curvature="0" /><path
         style="fill:#ffffff;stroke-width:0.42372882"
         d="m 249.76944,99.75333 c -0.55842,-0.558424 -0.66586,-1.959975 -0.66586,-8.686441 0,-9.527466 0.0779,-9.715496 4.02542,-9.715496 3.95708,0 4.02543,0.167637 4.02543,9.872881 0,5.795669 -0.14812,8.326088 -0.50848,8.686441 -0.78236,0.782365 -6.05749,0.661625 -6.87651,-0.157385 z"
         id="path74"
         inkscape:connector-curvature="0" /></g></g></svg>